<?xml version="1.0" encoding="utf-8" standalone="no"?>
<!DOCTYPE svg PUBLIC "-//W3C//DTD SVG 1.1//EN"
  "http://www.w3.org/Graphics/SVG/1.1/DTD/svg11.dtd">
<svg xmlns:xlink="http://www.w3.org/1999/xlink" width="689.25pt" height="302.688pt" viewBox="0 0 689.25 302.688" xmlns="http://www.w3.org/2000/svg" version="1.1">
 <metadata>
  <rdf:RDF xmlns:dc="http://purl.org/dc/elements/1.1/" xmlns:cc="http://creativecommons.org/ns#" xmlns:rdf="http://www.w3.org/1999/02/22-rdf-syntax-ns#">
   <cc:Work>
    <dc:type rdf:resource="http://purl.org/dc/dcmitype/StillImage"/>
    <dc:date>2026-08-14T01:58:01.935383</dc:date>
    <dc:format>image/svg+xml</dc:format>
    <dc:creator>
     <cc:Agent>
      <dc:title>P10 presentation renderer</dc:title>
     </cc:Agent>
    </dc:creator>
   </cc:Work>
  </rdf:RDF>
 </metadata>
 <defs>
  <style type="text/css">*{stroke-linejoin: round; stroke-linecap: butt}</style>
 </defs>
 <g id="figure_1">
  <g id="patch_1">
   <path d="M 0 302.688 
L 689.25 302.688 
L 689.25 0 
L 0 0 
z
" style="fill: #ffffff"/>
  </g>
  <g id="axes_1">
   <g id="patch_2">
    <path d="M 36.609 200.35296 
L 145.698 200.35296 
Q 158.532 200.35296 158.532 194.5872 
L 158.532 85.03776 
Q 158.532 79.272 145.698 79.272 
L 36.609 79.272 
Q 23.775 79.272 23.775 85.03776 
L 23.775 194.5872 
Q 23.775 200.35296 36.609 200.35296 
z
" clip-path="url(#p87f85ea536)" style="fill: #f4f7f9; stroke: #4c78a8; stroke-width: 1.6; stroke-linejoin: miter"/>
   </g>
   <g id="patch_3">
    <path d="M 161.7405 200.35296 
L 270.8295 200.35296 
Q 283.6635 200.35296 283.6635 194.5872 
L 283.6635 85.03776 
Q 283.6635 79.272 270.8295 79.272 
L 161.7405 79.272 
Q 148.9065 79.272 148.9065 85.03776 
L 148.9065 194.5872 
Q 148.9065 200.35296 161.7405 200.35296 
z
" clip-path="url(#p87f85ea536)" style="fill: #f4f7f9; stroke: #f58518; stroke-width: 1.6; stroke-linejoin: miter"/>
   </g>
   <g id="patch_4">
    <path d="M 286.872 200.35296 
L 395.961 200.35296 
Q 408.795 200.35296 408.795 194.5872 
L 408.795 85.03776 
Q 408.795 79.272 395.961 79.272 
L 286.872 79.272 
Q 274.038 79.272 274.038 85.03776 
L 274.038 194.5872 
Q 274.038 200.35296 286.872 200.35296 
z
" clip-path="url(#p87f85ea536)" style="fill: #f4f7f9; stroke: #54a24b; stroke-width: 1.6; stroke-linejoin: miter"/>
   </g>
   <g id="patch_5">
    <path d="M 412.0035 200.35296 
L 521.0925 200.35296 
Q 533.9265 200.35296 533.9265 194.5872 
L 533.9265 85.03776 
Q 533.9265 79.272 521.0925 79.272 
L 412.0035 79.272 
Q 399.1695 79.272 399.1695 85.03776 
L 399.1695 194.5872 
Q 399.1695 200.35296 412.0035 200.35296 
z
" clip-path="url(#p87f85ea536)" style="fill: #f4f7f9; stroke: #b279a2; stroke-width: 1.6; stroke-linejoin: miter"/>
   </g>
   <g id="patch_6">
    <path d="M 537.135 200.35296 
L 646.224 200.35296 
Q 659.058 200.35296 659.058 194.5872 
L 659.058 85.03776 
Q 659.058 79.272 646.224 79.272 
L 537.135 79.272 
Q 524.301 79.272 524.301 85.03776 
L 524.301 194.5872 
Q 524.301 200.35296 537.135 200.35296 
z
" clip-path="url(#p87f85ea536)" style="fill: #f4f7f9; stroke: #4c78a8; stroke-width: 1.6; stroke-linejoin: miter"/>
   </g>
   <g id="text_1">
    <!-- Prediction -->
    <g transform="translate(59.388422 116.74944) scale(0.11 -0.11)">
     <defs>
      <path id="DejaVuSans-Bold-33" d="M 588 4666 
L 2584 4666 
Q 3475 4666 3951 4270 
Q 4428 3875 4428 3144 
Q 4428 2409 3951 2014 
Q 3475 1619 2584 1619 
L 1791 1619 
L 1791 0 
L 588 0 
L 588 4666 
z
M 1791 3794 
L 1791 2491 
L 2456 2491 
Q 2806 2491 2997 2661 
Q 3188 2831 3188 3144 
Q 3188 3456 2997 3625 
Q 2806 3794 2456 3794 
L 1791 3794 
z
" transform="scale(0.015625)"/>
      <path id="DejaVuSans-Bold-55" d="M 3138 2547 
Q 2991 2616 2845 2648 
Q 2700 2681 2553 2681 
Q 2122 2681 1889 2404 
Q 1656 2128 1656 1613 
L 1656 0 
L 538 0 
L 538 3500 
L 1656 3500 
L 1656 2925 
Q 1872 3269 2151 3426 
Q 2431 3584 2822 3584 
Q 2878 3584 2943 3579 
Q 3009 3575 3134 3559 
L 3138 2547 
z
" transform="scale(0.015625)"/>
      <path id="DejaVuSans-Bold-48" d="M 4031 1759 
L 4031 1441 
L 1416 1441 
Q 1456 1047 1700 850 
Q 1944 653 2381 653 
Q 2734 653 3104 758 
Q 3475 863 3866 1075 
L 3866 213 
Q 3469 63 3072 -14 
Q 2675 -91 2278 -91 
Q 1328 -91 801 392 
Q 275 875 275 1747 
Q 275 2603 792 3093 
Q 1309 3584 2216 3584 
Q 3041 3584 3536 3087 
Q 4031 2591 4031 1759 
z
M 2881 2131 
Q 2881 2450 2695 2645 
Q 2509 2841 2209 2841 
Q 1884 2841 1681 2658 
Q 1478 2475 1428 2131 
L 2881 2131 
z
" transform="scale(0.015625)"/>
      <path id="DejaVuSans-Bold-47" d="M 2919 2988 
L 2919 4863 
L 4044 4863 
L 4044 0 
L 2919 0 
L 2919 506 
Q 2688 197 2409 53 
Q 2131 -91 1766 -91 
Q 1119 -91 703 423 
Q 288 938 288 1747 
Q 288 2556 703 3070 
Q 1119 3584 1766 3584 
Q 2128 3584 2408 3439 
Q 2688 3294 2919 2988 
z
M 2181 722 
Q 2541 722 2730 984 
Q 2919 1247 2919 1747 
Q 2919 2247 2730 2509 
Q 2541 2772 2181 2772 
Q 1825 2772 1636 2509 
Q 1447 2247 1447 1747 
Q 1447 1247 1636 984 
Q 1825 722 2181 722 
z
" transform="scale(0.015625)"/>
      <path id="DejaVuSans-Bold-4c" d="M 538 3500 
L 1656 3500 
L 1656 0 
L 538 0 
L 538 3500 
z
M 538 4863 
L 1656 4863 
L 1656 3950 
L 538 3950 
L 538 4863 
z
" transform="scale(0.015625)"/>
      <path id="DejaVuSans-Bold-46" d="M 3366 3391 
L 3366 2478 
Q 3138 2634 2908 2709 
Q 2678 2784 2431 2784 
Q 1963 2784 1702 2511 
Q 1441 2238 1441 1747 
Q 1441 1256 1702 982 
Q 1963 709 2431 709 
Q 2694 709 2930 787 
Q 3166 866 3366 1019 
L 3366 103 
Q 3103 6 2833 -42 
Q 2563 -91 2291 -91 
Q 1344 -91 809 395 
Q 275 881 275 1747 
Q 275 2613 809 3098 
Q 1344 3584 2291 3584 
Q 2566 3584 2833 3536 
Q 3100 3488 3366 3391 
z
" transform="scale(0.015625)"/>
      <path id="DejaVuSans-Bold-57" d="M 1759 4494 
L 1759 3500 
L 2913 3500 
L 2913 2700 
L 1759 2700 
L 1759 1216 
Q 1759 972 1856 886 
Q 1953 800 2241 800 
L 2816 800 
L 2816 0 
L 1856 0 
Q 1194 0 917 276 
Q 641 553 641 1216 
L 641 2700 
L 84 2700 
L 84 3500 
L 641 3500 
L 641 4494 
L 1759 4494 
z
" transform="scale(0.015625)"/>
      <path id="DejaVuSans-Bold-52" d="M 2203 2784 
Q 1831 2784 1636 2517 
Q 1441 2250 1441 1747 
Q 1441 1244 1636 976 
Q 1831 709 2203 709 
Q 2569 709 2762 976 
Q 2956 1244 2956 1747 
Q 2956 2250 2762 2517 
Q 2569 2784 2203 2784 
z
M 2203 3584 
Q 3106 3584 3614 3096 
Q 4122 2609 4122 1747 
Q 4122 884 3614 396 
Q 3106 -91 2203 -91 
Q 1297 -91 786 396 
Q 275 884 275 1747 
Q 275 2609 786 3096 
Q 1297 3584 2203 3584 
z
" transform="scale(0.015625)"/>
      <path id="DejaVuSans-Bold-51" d="M 4056 2131 
L 4056 0 
L 2931 0 
L 2931 347 
L 2931 1631 
Q 2931 2084 2911 2256 
Q 2891 2428 2841 2509 
Q 2775 2619 2662 2680 
Q 2550 2741 2406 2741 
Q 2056 2741 1856 2470 
Q 1656 2200 1656 1722 
L 1656 0 
L 538 0 
L 538 3500 
L 1656 3500 
L 1656 2988 
Q 1909 3294 2193 3439 
Q 2478 3584 2822 3584 
Q 3428 3584 3742 3212 
Q 4056 2841 4056 2131 
z
" transform="scale(0.015625)"/>
     </defs>
     <use xlink:href="#DejaVuSans-Bold-33"/>
     <use xlink:href="#DejaVuSans-Bold-55" transform="translate(73.296875 0)"/>
     <use xlink:href="#DejaVuSans-Bold-48" transform="translate(122.609375 0)"/>
     <use xlink:href="#DejaVuSans-Bold-47" transform="translate(190.4375 0)"/>
     <use xlink:href="#DejaVuSans-Bold-4c" transform="translate(262.015625 0)"/>
     <use xlink:href="#DejaVuSans-Bold-46" transform="translate(296.296875 0)"/>
     <use xlink:href="#DejaVuSans-Bold-57" transform="translate(355.578125 0)"/>
     <use xlink:href="#DejaVuSans-Bold-4c" transform="translate(403.375 0)"/>
     <use xlink:href="#DejaVuSans-Bold-52" transform="translate(437.65625 0)"/>
     <use xlink:href="#DejaVuSans-Bold-51" transform="translate(506.359375 0)"/>
    </g>
   </g>
   <g id="text_2">
    <!-- Lowest MAE point estimate -->
    <g transform="translate(36.831625 165.918624) scale(0.08 -0.08)">
     <defs>
      <path id="DejaVuSans-2f" d="M 628 4666 
L 1259 4666 
L 1259 531 
L 3531 531 
L 3531 0 
L 628 0 
L 628 4666 
z
" transform="scale(0.015625)"/>
      <path id="DejaVuSans-52" d="M 1959 3097 
Q 1497 3097 1228 2736 
Q 959 2375 959 1747 
Q 959 1119 1226 758 
Q 1494 397 1959 397 
Q 2419 397 2687 759 
Q 2956 1122 2956 1747 
Q 2956 2369 2687 2733 
Q 2419 3097 1959 3097 
z
M 1959 3584 
Q 2709 3584 3137 3096 
Q 3566 2609 3566 1747 
Q 3566 888 3137 398 
Q 2709 -91 1959 -91 
Q 1206 -91 779 398 
Q 353 888 353 1747 
Q 353 2609 779 3096 
Q 1206 3584 1959 3584 
z
" transform="scale(0.015625)"/>
      <path id="DejaVuSans-5a" d="M 269 3500 
L 844 3500 
L 1563 769 
L 2278 3500 
L 2956 3500 
L 3675 769 
L 4391 3500 
L 4966 3500 
L 4050 0 
L 3372 0 
L 2619 2869 
L 1863 0 
L 1184 0 
L 269 3500 
z
" transform="scale(0.015625)"/>
      <path id="DejaVuSans-48" d="M 3597 1894 
L 3597 1613 
L 953 1613 
Q 991 1019 1311 708 
Q 1631 397 2203 397 
Q 2534 397 2845 478 
Q 3156 559 3463 722 
L 3463 178 
Q 3153 47 2828 -22 
Q 2503 -91 2169 -91 
Q 1331 -91 842 396 
Q 353 884 353 1716 
Q 353 2575 817 3079 
Q 1281 3584 2069 3584 
Q 2775 3584 3186 3129 
Q 3597 2675 3597 1894 
z
M 3022 2063 
Q 3016 2534 2758 2815 
Q 2500 3097 2075 3097 
Q 1594 3097 1305 2825 
Q 1016 2553 972 2059 
L 3022 2063 
z
" transform="scale(0.015625)"/>
      <path id="DejaVuSans-56" d="M 2834 3397 
L 2834 2853 
Q 2591 2978 2328 3040 
Q 2066 3103 1784 3103 
Q 1356 3103 1142 2972 
Q 928 2841 928 2578 
Q 928 2378 1081 2264 
Q 1234 2150 1697 2047 
L 1894 2003 
Q 2506 1872 2764 1633 
Q 3022 1394 3022 966 
Q 3022 478 2636 193 
Q 2250 -91 1575 -91 
Q 1294 -91 989 -36 
Q 684 19 347 128 
L 347 722 
Q 666 556 975 473 
Q 1284 391 1588 391 
Q 1994 391 2212 530 
Q 2431 669 2431 922 
Q 2431 1156 2273 1281 
Q 2116 1406 1581 1522 
L 1381 1569 
Q 847 1681 609 1914 
Q 372 2147 372 2553 
Q 372 3047 722 3315 
Q 1072 3584 1716 3584 
Q 2034 3584 2315 3537 
Q 2597 3491 2834 3397 
z
" transform="scale(0.015625)"/>
      <path id="DejaVuSans-57" d="M 1172 4494 
L 1172 3500 
L 2356 3500 
L 2356 3053 
L 1172 3053 
L 1172 1153 
Q 1172 725 1289 603 
Q 1406 481 1766 481 
L 2356 481 
L 2356 0 
L 1766 0 
Q 1100 0 847 248 
Q 594 497 594 1153 
L 594 3053 
L 172 3053 
L 172 3500 
L 594 3500 
L 594 4494 
L 1172 4494 
z
" transform="scale(0.015625)"/>
      <path id="DejaVuSans-3" transform="scale(0.015625)"/>
      <path id="DejaVuSans-30" d="M 628 4666 
L 1569 4666 
L 2759 1491 
L 3956 4666 
L 4897 4666 
L 4897 0 
L 4281 0 
L 4281 4097 
L 3078 897 
L 2444 897 
L 1241 4097 
L 1241 0 
L 628 0 
L 628 4666 
z
" transform="scale(0.015625)"/>
      <path id="DejaVuSans-24" d="M 2188 4044 
L 1331 1722 
L 3047 1722 
L 2188 4044 
z
M 1831 4666 
L 2547 4666 
L 4325 0 
L 3669 0 
L 3244 1197 
L 1141 1197 
L 716 0 
L 50 0 
L 1831 4666 
z
" transform="scale(0.015625)"/>
      <path id="DejaVuSans-28" d="M 628 4666 
L 3578 4666 
L 3578 4134 
L 1259 4134 
L 1259 2753 
L 3481 2753 
L 3481 2222 
L 1259 2222 
L 1259 531 
L 3634 531 
L 3634 0 
L 628 0 
L 628 4666 
z
" transform="scale(0.015625)"/>
      <path id="DejaVuSans-53" d="M 1159 525 
L 1159 -1331 
L 581 -1331 
L 581 3500 
L 1159 3500 
L 1159 2969 
Q 1341 3281 1617 3432 
Q 1894 3584 2278 3584 
Q 2916 3584 3314 3078 
Q 3713 2572 3713 1747 
Q 3713 922 3314 415 
Q 2916 -91 2278 -91 
Q 1894 -91 1617 61 
Q 1341 213 1159 525 
z
M 3116 1747 
Q 3116 2381 2855 2742 
Q 2594 3103 2138 3103 
Q 1681 3103 1420 2742 
Q 1159 2381 1159 1747 
Q 1159 1113 1420 752 
Q 1681 391 2138 391 
Q 2594 391 2855 752 
Q 3116 1113 3116 1747 
z
" transform="scale(0.015625)"/>
      <path id="DejaVuSans-4c" d="M 603 3500 
L 1178 3500 
L 1178 0 
L 603 0 
L 603 3500 
z
M 603 4863 
L 1178 4863 
L 1178 4134 
L 603 4134 
L 603 4863 
z
" transform="scale(0.015625)"/>
      <path id="DejaVuSans-51" d="M 3513 2113 
L 3513 0 
L 2938 0 
L 2938 2094 
Q 2938 2591 2744 2837 
Q 2550 3084 2163 3084 
Q 1697 3084 1428 2787 
Q 1159 2491 1159 1978 
L 1159 0 
L 581 0 
L 581 3500 
L 1159 3500 
L 1159 2956 
Q 1366 3272 1645 3428 
Q 1925 3584 2291 3584 
Q 2894 3584 3203 3211 
Q 3513 2838 3513 2113 
z
" transform="scale(0.015625)"/>
      <path id="DejaVuSans-50" d="M 3328 2828 
Q 3544 3216 3844 3400 
Q 4144 3584 4550 3584 
Q 5097 3584 5394 3201 
Q 5691 2819 5691 2113 
L 5691 0 
L 5113 0 
L 5113 2094 
Q 5113 2597 4934 2840 
Q 4756 3084 4391 3084 
Q 3944 3084 3684 2787 
Q 3425 2491 3425 1978 
L 3425 0 
L 2847 0 
L 2847 2094 
Q 2847 2600 2669 2842 
Q 2491 3084 2119 3084 
Q 1678 3084 1418 2786 
Q 1159 2488 1159 1978 
L 1159 0 
L 581 0 
L 581 3500 
L 1159 3500 
L 1159 2956 
Q 1356 3278 1631 3431 
Q 1906 3584 2284 3584 
Q 2666 3584 2933 3390 
Q 3200 3197 3328 2828 
z
" transform="scale(0.015625)"/>
      <path id="DejaVuSans-44" d="M 2194 1759 
Q 1497 1759 1228 1600 
Q 959 1441 959 1056 
Q 959 750 1161 570 
Q 1363 391 1709 391 
Q 2188 391 2477 730 
Q 2766 1069 2766 1631 
L 2766 1759 
L 2194 1759 
z
M 3341 1997 
L 3341 0 
L 2766 0 
L 2766 531 
Q 2569 213 2275 61 
Q 1981 -91 1556 -91 
Q 1019 -91 701 211 
Q 384 513 384 1019 
Q 384 1609 779 1909 
Q 1175 2209 1959 2209 
L 2766 2209 
L 2766 2266 
Q 2766 2663 2505 2880 
Q 2244 3097 1772 3097 
Q 1472 3097 1187 3025 
Q 903 2953 641 2809 
L 641 3341 
Q 956 3463 1253 3523 
Q 1550 3584 1831 3584 
Q 2591 3584 2966 3190 
Q 3341 2797 3341 1997 
z
" transform="scale(0.015625)"/>
     </defs>
     <use xlink:href="#DejaVuSans-2f"/>
     <use xlink:href="#DejaVuSans-52" transform="translate(53.96875 0)"/>
     <use xlink:href="#DejaVuSans-5a" transform="translate(115.15625 0)"/>
     <use xlink:href="#DejaVuSans-48" transform="translate(196.9375 0)"/>
     <use xlink:href="#DejaVuSans-56" transform="translate(258.46875 0)"/>
     <use xlink:href="#DejaVuSans-57" transform="translate(310.5625 0)"/>
     <use xlink:href="#DejaVuSans-3" transform="translate(349.765625 0)"/>
     <use xlink:href="#DejaVuSans-30" transform="translate(381.546875 0)"/>
     <use xlink:href="#DejaVuSans-24" transform="translate(467.828125 0)"/>
     <use xlink:href="#DejaVuSans-28" transform="translate(536.234375 0)"/>
     <use xlink:href="#DejaVuSans-3" transform="translate(599.421875 0)"/>
     <use xlink:href="#DejaVuSans-53" transform="translate(631.203125 0)"/>
     <use xlink:href="#DejaVuSans-52" transform="translate(694.6875 0)"/>
     <use xlink:href="#DejaVuSans-4c" transform="translate(755.875 0)"/>
     <use xlink:href="#DejaVuSans-51" transform="translate(783.65625 0)"/>
     <use xlink:href="#DejaVuSans-57" transform="translate(847.03125 0)"/>
     <use xlink:href="#DejaVuSans-3" transform="translate(886.234375 0)"/>
     <use xlink:href="#DejaVuSans-48" transform="translate(918.015625 0)"/>
     <use xlink:href="#DejaVuSans-56" transform="translate(979.546875 0)"/>
     <use xlink:href="#DejaVuSans-57" transform="translate(1031.640625 0)"/>
     <use xlink:href="#DejaVuSans-4c" transform="translate(1070.84375 0)"/>
     <use xlink:href="#DejaVuSans-50" transform="translate(1098.625 0)"/>
     <use xlink:href="#DejaVuSans-44" transform="translate(1196.03125 0)"/>
     <use xlink:href="#DejaVuSans-57" transform="translate(1257.3125 0)"/>
     <use xlink:href="#DejaVuSans-48" transform="translate(1296.515625 0)"/>
    </g>
    <!-- Uncertainty by paired bootstrap -->
    <g transform="translate(27.116 175.520811) scale(0.08 -0.08)">
     <defs>
      <path id="DejaVuSans-38" d="M 556 4666 
L 1191 4666 
L 1191 1831 
Q 1191 1081 1462 751 
Q 1734 422 2344 422 
Q 2950 422 3222 751 
Q 3494 1081 3494 1831 
L 3494 4666 
L 4128 4666 
L 4128 1753 
Q 4128 841 3676 375 
Q 3225 -91 2344 -91 
Q 1459 -91 1007 375 
Q 556 841 556 1753 
L 556 4666 
z
" transform="scale(0.015625)"/>
      <path id="DejaVuSans-46" d="M 3122 3366 
L 3122 2828 
Q 2878 2963 2633 3030 
Q 2388 3097 2138 3097 
Q 1578 3097 1268 2742 
Q 959 2388 959 1747 
Q 959 1106 1268 751 
Q 1578 397 2138 397 
Q 2388 397 2633 464 
Q 2878 531 3122 666 
L 3122 134 
Q 2881 22 2623 -34 
Q 2366 -91 2075 -91 
Q 1284 -91 818 406 
Q 353 903 353 1747 
Q 353 2603 823 3093 
Q 1294 3584 2113 3584 
Q 2378 3584 2631 3529 
Q 2884 3475 3122 3366 
z
" transform="scale(0.015625)"/>
      <path id="DejaVuSans-55" d="M 2631 2963 
Q 2534 3019 2420 3045 
Q 2306 3072 2169 3072 
Q 1681 3072 1420 2755 
Q 1159 2438 1159 1844 
L 1159 0 
L 581 0 
L 581 3500 
L 1159 3500 
L 1159 2956 
Q 1341 3275 1631 3429 
Q 1922 3584 2338 3584 
Q 2397 3584 2469 3576 
Q 2541 3569 2628 3553 
L 2631 2963 
z
" transform="scale(0.015625)"/>
      <path id="DejaVuSans-5c" d="M 2059 -325 
Q 1816 -950 1584 -1140 
Q 1353 -1331 966 -1331 
L 506 -1331 
L 506 -850 
L 844 -850 
Q 1081 -850 1212 -737 
Q 1344 -625 1503 -206 
L 1606 56 
L 191 3500 
L 800 3500 
L 1894 763 
L 2988 3500 
L 3597 3500 
L 2059 -325 
z
" transform="scale(0.015625)"/>
      <path id="DejaVuSans-45" d="M 3116 1747 
Q 3116 2381 2855 2742 
Q 2594 3103 2138 3103 
Q 1681 3103 1420 2742 
Q 1159 2381 1159 1747 
Q 1159 1113 1420 752 
Q 1681 391 2138 391 
Q 2594 391 2855 752 
Q 3116 1113 3116 1747 
z
M 1159 2969 
Q 1341 3281 1617 3432 
Q 1894 3584 2278 3584 
Q 2916 3584 3314 3078 
Q 3713 2572 3713 1747 
Q 3713 922 3314 415 
Q 2916 -91 2278 -91 
Q 1894 -91 1617 61 
Q 1341 213 1159 525 
L 1159 0 
L 581 0 
L 581 4863 
L 1159 4863 
L 1159 2969 
z
" transform="scale(0.015625)"/>
      <path id="DejaVuSans-47" d="M 2906 2969 
L 2906 4863 
L 3481 4863 
L 3481 0 
L 2906 0 
L 2906 525 
Q 2725 213 2448 61 
Q 2172 -91 1784 -91 
Q 1150 -91 751 415 
Q 353 922 353 1747 
Q 353 2572 751 3078 
Q 1150 3584 1784 3584 
Q 2172 3584 2448 3432 
Q 2725 3281 2906 2969 
z
M 947 1747 
Q 947 1113 1208 752 
Q 1469 391 1925 391 
Q 2381 391 2643 752 
Q 2906 1113 2906 1747 
Q 2906 2381 2643 2742 
Q 2381 3103 1925 3103 
Q 1469 3103 1208 2742 
Q 947 2381 947 1747 
z
" transform="scale(0.015625)"/>
     </defs>
     <use xlink:href="#DejaVuSans-38"/>
     <use xlink:href="#DejaVuSans-51" transform="translate(73.1875 0)"/>
     <use xlink:href="#DejaVuSans-46" transform="translate(136.5625 0)"/>
     <use xlink:href="#DejaVuSans-48" transform="translate(191.546875 0)"/>
     <use xlink:href="#DejaVuSans-55" transform="translate(253.078125 0)"/>
     <use xlink:href="#DejaVuSans-57" transform="translate(294.1875 0)"/>
     <use xlink:href="#DejaVuSans-44" transform="translate(333.390625 0)"/>
     <use xlink:href="#DejaVuSans-4c" transform="translate(394.671875 0)"/>
     <use xlink:href="#DejaVuSans-51" transform="translate(422.453125 0)"/>
     <use xlink:href="#DejaVuSans-57" transform="translate(485.828125 0)"/>
     <use xlink:href="#DejaVuSans-5c" transform="translate(525.03125 0)"/>
     <use xlink:href="#DejaVuSans-3" transform="translate(584.21875 0)"/>
     <use xlink:href="#DejaVuSans-45" transform="translate(616 0)"/>
     <use xlink:href="#DejaVuSans-5c" transform="translate(679.484375 0)"/>
     <use xlink:href="#DejaVuSans-3" transform="translate(738.671875 0)"/>
     <use xlink:href="#DejaVuSans-53" transform="translate(770.453125 0)"/>
     <use xlink:href="#DejaVuSans-44" transform="translate(833.9375 0)"/>
     <use xlink:href="#DejaVuSans-4c" transform="translate(895.21875 0)"/>
     <use xlink:href="#DejaVuSans-55" transform="translate(923 0)"/>
     <use xlink:href="#DejaVuSans-48" transform="translate(961.90625 0)"/>
     <use xlink:href="#DejaVuSans-47" transform="translate(1023.4375 0)"/>
     <use xlink:href="#DejaVuSans-3" transform="translate(1086.921875 0)"/>
     <use xlink:href="#DejaVuSans-45" transform="translate(1118.703125 0)"/>
     <use xlink:href="#DejaVuSans-52" transform="translate(1182.1875 0)"/>
     <use xlink:href="#DejaVuSans-52" transform="translate(1243.375 0)"/>
     <use xlink:href="#DejaVuSans-57" transform="translate(1304.5625 0)"/>
     <use xlink:href="#DejaVuSans-56" transform="translate(1343.765625 0)"/>
     <use xlink:href="#DejaVuSans-57" transform="translate(1395.859375 0)"/>
     <use xlink:href="#DejaVuSans-55" transform="translate(1435.0625 0)"/>
     <use xlink:href="#DejaVuSans-44" transform="translate(1476.171875 0)"/>
     <use xlink:href="#DejaVuSans-53" transform="translate(1537.453125 0)"/>
    </g>
   </g>
   <g id="patch_7">
    <path d="M 147.699396 139.81248 
Q 153.720685 139.81248 157.953119 139.81248 
" style="fill: none; stroke: #000000; stroke-width: 1.6; stroke-linecap: round"/>
    <path d="M 153.953119 137.81248 
L 157.953119 139.81248 
L 153.953119 141.81248 
" style="fill: none; stroke: #000000; stroke-width: 1.6; stroke-linecap: round"/>
   </g>
   <g id="text_3">
    <!-- WHERE -->
    <g transform="translate(193.866484 116.74944) scale(0.11 -0.11)">
     <defs>
      <path id="DejaVuSans-Bold-3a" d="M 191 4666 
L 1344 4666 
L 2150 1275 
L 2950 4666 
L 4109 4666 
L 4909 1275 
L 5716 4666 
L 6859 4666 
L 5759 0 
L 4372 0 
L 3525 3547 
L 2688 0 
L 1300 0 
L 191 4666 
z
" transform="scale(0.015625)"/>
      <path id="DejaVuSans-Bold-2b" d="M 588 4666 
L 1791 4666 
L 1791 2888 
L 3566 2888 
L 3566 4666 
L 4769 4666 
L 4769 0 
L 3566 0 
L 3566 1978 
L 1791 1978 
L 1791 0 
L 588 0 
L 588 4666 
z
" transform="scale(0.015625)"/>
      <path id="DejaVuSans-Bold-28" d="M 588 4666 
L 3834 4666 
L 3834 3756 
L 1791 3756 
L 1791 2888 
L 3713 2888 
L 3713 1978 
L 1791 1978 
L 1791 909 
L 3903 909 
L 3903 0 
L 588 0 
L 588 4666 
z
" transform="scale(0.015625)"/>
      <path id="DejaVuSans-Bold-35" d="M 2297 2597 
Q 2675 2597 2839 2737 
Q 3003 2878 3003 3200 
Q 3003 3519 2839 3656 
Q 2675 3794 2297 3794 
L 1791 3794 
L 1791 2597 
L 2297 2597 
z
M 1791 1766 
L 1791 0 
L 588 0 
L 588 4666 
L 2425 4666 
Q 3347 4666 3776 4356 
Q 4206 4047 4206 3378 
Q 4206 2916 3982 2619 
Q 3759 2322 3309 2181 
Q 3556 2125 3751 1926 
Q 3947 1728 4147 1325 
L 4800 0 
L 3519 0 
L 2950 1159 
Q 2778 1509 2601 1637 
Q 2425 1766 2131 1766 
L 1791 1766 
z
" transform="scale(0.015625)"/>
     </defs>
     <use xlink:href="#DejaVuSans-Bold-3a"/>
     <use xlink:href="#DejaVuSans-Bold-2b" transform="translate(110.296875 0)"/>
     <use xlink:href="#DejaVuSans-Bold-28" transform="translate(193.984375 0)"/>
     <use xlink:href="#DejaVuSans-Bold-35" transform="translate(262.296875 0)"/>
     <use xlink:href="#DejaVuSans-Bold-28" transform="translate(339.296875 0)"/>
    </g>
   </g>
   <g id="text_4">
    <!-- Valid and zero maps -->
    <g transform="translate(175.771875 165.918624) scale(0.08 -0.08)">
     <defs>
      <path id="DejaVuSans-39" d="M 1831 0 
L 50 4666 
L 709 4666 
L 2188 738 
L 3669 4666 
L 4325 4666 
L 2547 0 
L 1831 0 
z
" transform="scale(0.015625)"/>
      <path id="DejaVuSans-4f" d="M 603 4863 
L 1178 4863 
L 1178 0 
L 603 0 
L 603 4863 
z
" transform="scale(0.015625)"/>
      <path id="DejaVuSans-5d" d="M 353 3500 
L 3084 3500 
L 3084 2975 
L 922 459 
L 3084 459 
L 3084 0 
L 275 0 
L 275 525 
L 2438 3041 
L 353 3041 
L 353 3500 
z
" transform="scale(0.015625)"/>
     </defs>
     <use xlink:href="#DejaVuSans-39"/>
     <use xlink:href="#DejaVuSans-44" transform="translate(60.640625 0)"/>
     <use xlink:href="#DejaVuSans-4f" transform="translate(121.921875 0)"/>
     <use xlink:href="#DejaVuSans-4c" transform="translate(149.703125 0)"/>
     <use xlink:href="#DejaVuSans-47" transform="translate(177.484375 0)"/>
     <use xlink:href="#DejaVuSans-3" transform="translate(240.96875 0)"/>
     <use xlink:href="#DejaVuSans-44" transform="translate(272.75 0)"/>
     <use xlink:href="#DejaVuSans-51" transform="translate(334.03125 0)"/>
     <use xlink:href="#DejaVuSans-47" transform="translate(397.40625 0)"/>
     <use xlink:href="#DejaVuSans-3" transform="translate(460.890625 0)"/>
     <use xlink:href="#DejaVuSans-5d" transform="translate(492.671875 0)"/>
     <use xlink:href="#DejaVuSans-48" transform="translate(545.15625 0)"/>
     <use xlink:href="#DejaVuSans-55" transform="translate(606.6875 0)"/>
     <use xlink:href="#DejaVuSans-52" transform="translate(645.59375 0)"/>
     <use xlink:href="#DejaVuSans-3" transform="translate(706.78125 0)"/>
     <use xlink:href="#DejaVuSans-50" transform="translate(738.5625 0)"/>
     <use xlink:href="#DejaVuSans-44" transform="translate(835.96875 0)"/>
     <use xlink:href="#DejaVuSans-53" transform="translate(897.25 0)"/>
     <use xlink:href="#DejaVuSans-56" transform="translate(960.734375 0)"/>
    </g>
    <!-- Matched-random faithfulness -->
    <g transform="translate(157.559375 175.520811) scale(0.08 -0.08)">
     <defs>
      <path id="DejaVuSans-4b" d="M 3513 2113 
L 3513 0 
L 2938 0 
L 2938 2094 
Q 2938 2591 2744 2837 
Q 2550 3084 2163 3084 
Q 1697 3084 1428 2787 
Q 1159 2491 1159 1978 
L 1159 0 
L 581 0 
L 581 4863 
L 1159 4863 
L 1159 2956 
Q 1366 3272 1645 3428 
Q 1925 3584 2291 3584 
Q 2894 3584 3203 3211 
Q 3513 2838 3513 2113 
z
" transform="scale(0.015625)"/>
      <path id="DejaVuSans-10" d="M 313 2009 
L 1997 2009 
L 1997 1497 
L 313 1497 
L 313 2009 
z
" transform="scale(0.015625)"/>
      <path id="DejaVuSans-49" d="M 2375 4863 
L 2375 4384 
L 1825 4384 
Q 1516 4384 1395 4259 
Q 1275 4134 1275 3809 
L 1275 3500 
L 2222 3500 
L 2222 3053 
L 1275 3053 
L 1275 0 
L 697 0 
L 697 3053 
L 147 3053 
L 147 3500 
L 697 3500 
L 697 3744 
Q 697 4328 969 4595 
Q 1241 4863 1831 4863 
L 2375 4863 
z
" transform="scale(0.015625)"/>
      <path id="DejaVuSans-58" d="M 544 1381 
L 544 3500 
L 1119 3500 
L 1119 1403 
Q 1119 906 1312 657 
Q 1506 409 1894 409 
Q 2359 409 2629 706 
Q 2900 1003 2900 1516 
L 2900 3500 
L 3475 3500 
L 3475 0 
L 2900 0 
L 2900 538 
Q 2691 219 2414 64 
Q 2138 -91 1772 -91 
Q 1169 -91 856 284 
Q 544 659 544 1381 
z
M 1991 3584 
L 1991 3584 
z
" transform="scale(0.015625)"/>
     </defs>
     <use xlink:href="#DejaVuSans-30"/>
     <use xlink:href="#DejaVuSans-44" transform="translate(86.28125 0)"/>
     <use xlink:href="#DejaVuSans-57" transform="translate(147.5625 0)"/>
     <use xlink:href="#DejaVuSans-46" transform="translate(186.765625 0)"/>
     <use xlink:href="#DejaVuSans-4b" transform="translate(241.75 0)"/>
     <use xlink:href="#DejaVuSans-48" transform="translate(305.125 0)"/>
     <use xlink:href="#DejaVuSans-47" transform="translate(366.65625 0)"/>
     <use xlink:href="#DejaVuSans-10" transform="translate(430.140625 0)"/>
     <use xlink:href="#DejaVuSans-55" transform="translate(466.21875 0)"/>
     <use xlink:href="#DejaVuSans-44" transform="translate(507.328125 0)"/>
     <use xlink:href="#DejaVuSans-51" transform="translate(568.609375 0)"/>
     <use xlink:href="#DejaVuSans-47" transform="translate(631.984375 0)"/>
     <use xlink:href="#DejaVuSans-52" transform="translate(695.46875 0)"/>
     <use xlink:href="#DejaVuSans-50" transform="translate(756.65625 0)"/>
     <use xlink:href="#DejaVuSans-3" transform="translate(854.0625 0)"/>
     <use xlink:href="#DejaVuSans-49" transform="translate(885.84375 0)"/>
     <use xlink:href="#DejaVuSans-44" transform="translate(921.046875 0)"/>
     <use xlink:href="#DejaVuSans-4c" transform="translate(982.328125 0)"/>
     <use xlink:href="#DejaVuSans-57" transform="translate(1010.109375 0)"/>
     <use xlink:href="#DejaVuSans-4b" transform="translate(1049.3125 0)"/>
     <use xlink:href="#DejaVuSans-49" transform="translate(1112.6875 0)"/>
     <use xlink:href="#DejaVuSans-58" transform="translate(1147.890625 0)"/>
     <use xlink:href="#DejaVuSans-4f" transform="translate(1211.265625 0)"/>
     <use xlink:href="#DejaVuSans-51" transform="translate(1239.046875 0)"/>
     <use xlink:href="#DejaVuSans-48" transform="translate(1302.421875 0)"/>
     <use xlink:href="#DejaVuSans-56" transform="translate(1363.953125 0)"/>
     <use xlink:href="#DejaVuSans-56" transform="translate(1416.046875 0)"/>
    </g>
   </g>
   <g id="patch_8">
    <path d="M 272.830896 139.81248 
Q 278.852185 139.81248 283.084619 139.81248 
" style="fill: none; stroke: #000000; stroke-width: 1.6; stroke-linecap: round"/>
    <path d="M 279.084619 137.81248 
L 283.084619 139.81248 
L 279.084619 141.81248 
" style="fill: none; stroke: #000000; stroke-width: 1.6; stroke-linecap: round"/>
   </g>
   <g id="text_5">
    <!-- WHAT -->
    <g transform="translate(323.165953 116.74944) scale(0.11 -0.11)">
     <defs>
      <path id="DejaVuSans-Bold-24" d="M 3419 850 
L 1538 850 
L 1241 0 
L 31 0 
L 1759 4666 
L 3194 4666 
L 4922 0 
L 3713 0 
L 3419 850 
z
M 1838 1716 
L 3116 1716 
L 2478 3572 
L 1838 1716 
z
" transform="scale(0.015625)"/>
      <path id="DejaVuSans-Bold-37" d="M 31 4666 
L 4331 4666 
L 4331 3756 
L 2784 3756 
L 2784 0 
L 1581 0 
L 1581 3756 
L 31 3756 
L 31 4666 
z
" transform="scale(0.015625)"/>
     </defs>
     <use xlink:href="#DejaVuSans-Bold-3a"/>
     <use xlink:href="#DejaVuSans-Bold-2b" transform="translate(110.296875 0)"/>
     <use xlink:href="#DejaVuSans-Bold-24" transform="translate(193.984375 0)"/>
     <use xlink:href="#DejaVuSans-Bold-37" transform="translate(263.609375 0)"/>
    </g>
   </g>
   <g id="text_6">
    <!-- Continuous and categorical -->
    <g transform="translate(286.57275 165.918624) scale(0.08 -0.08)">
     <defs>
      <path id="DejaVuSans-26" d="M 4122 4306 
L 4122 3641 
Q 3803 3938 3442 4084 
Q 3081 4231 2675 4231 
Q 1875 4231 1450 3742 
Q 1025 3253 1025 2328 
Q 1025 1406 1450 917 
Q 1875 428 2675 428 
Q 3081 428 3442 575 
Q 3803 722 4122 1019 
L 4122 359 
Q 3791 134 3420 21 
Q 3050 -91 2638 -91 
Q 1578 -91 968 557 
Q 359 1206 359 2328 
Q 359 3453 968 4101 
Q 1578 4750 2638 4750 
Q 3056 4750 3426 4639 
Q 3797 4528 4122 4306 
z
" transform="scale(0.015625)"/>
      <path id="DejaVuSans-4a" d="M 2906 1791 
Q 2906 2416 2648 2759 
Q 2391 3103 1925 3103 
Q 1463 3103 1205 2759 
Q 947 2416 947 1791 
Q 947 1169 1205 825 
Q 1463 481 1925 481 
Q 2391 481 2648 825 
Q 2906 1169 2906 1791 
z
M 3481 434 
Q 3481 -459 3084 -895 
Q 2688 -1331 1869 -1331 
Q 1566 -1331 1297 -1286 
Q 1028 -1241 775 -1147 
L 775 -588 
Q 1028 -725 1275 -790 
Q 1522 -856 1778 -856 
Q 2344 -856 2625 -561 
Q 2906 -266 2906 331 
L 2906 616 
Q 2728 306 2450 153 
Q 2172 0 1784 0 
Q 1141 0 747 490 
Q 353 981 353 1791 
Q 353 2603 747 3093 
Q 1141 3584 1784 3584 
Q 2172 3584 2450 3431 
Q 2728 3278 2906 2969 
L 2906 3500 
L 3481 3500 
L 3481 434 
z
" transform="scale(0.015625)"/>
     </defs>
     <use xlink:href="#DejaVuSans-26"/>
     <use xlink:href="#DejaVuSans-52" transform="translate(69.828125 0)"/>
     <use xlink:href="#DejaVuSans-51" transform="translate(131.015625 0)"/>
     <use xlink:href="#DejaVuSans-57" transform="translate(194.390625 0)"/>
     <use xlink:href="#DejaVuSans-4c" transform="translate(233.59375 0)"/>
     <use xlink:href="#DejaVuSans-51" transform="translate(261.375 0)"/>
     <use xlink:href="#DejaVuSans-58" transform="translate(324.75 0)"/>
     <use xlink:href="#DejaVuSans-52" transform="translate(388.125 0)"/>
     <use xlink:href="#DejaVuSans-58" transform="translate(449.3125 0)"/>
     <use xlink:href="#DejaVuSans-56" transform="translate(512.6875 0)"/>
     <use xlink:href="#DejaVuSans-3" transform="translate(564.78125 0)"/>
     <use xlink:href="#DejaVuSans-44" transform="translate(596.5625 0)"/>
     <use xlink:href="#DejaVuSans-51" transform="translate(657.84375 0)"/>
     <use xlink:href="#DejaVuSans-47" transform="translate(721.21875 0)"/>
     <use xlink:href="#DejaVuSans-3" transform="translate(784.703125 0)"/>
     <use xlink:href="#DejaVuSans-46" transform="translate(816.484375 0)"/>
     <use xlink:href="#DejaVuSans-44" transform="translate(871.46875 0)"/>
     <use xlink:href="#DejaVuSans-57" transform="translate(932.75 0)"/>
     <use xlink:href="#DejaVuSans-48" transform="translate(971.953125 0)"/>
     <use xlink:href="#DejaVuSans-4a" transform="translate(1033.484375 0)"/>
     <use xlink:href="#DejaVuSans-52" transform="translate(1096.96875 0)"/>
     <use xlink:href="#DejaVuSans-55" transform="translate(1158.15625 0)"/>
     <use xlink:href="#DejaVuSans-4c" transform="translate(1199.265625 0)"/>
     <use xlink:href="#DejaVuSans-46" transform="translate(1227.046875 0)"/>
     <use xlink:href="#DejaVuSans-44" transform="translate(1282.03125 0)"/>
     <use xlink:href="#DejaVuSans-4f" transform="translate(1343.3125 0)"/>
    </g>
    <!-- concept fidelity -->
    <g transform="translate(310.517125 175.520811) scale(0.08 -0.08)">
     <defs>
      <path id="DejaVuSans-13af" d="M 3431 3500 
L 3431 0 
L 2853 0 
L 2853 3053 
L 1275 3053 
L 1275 0 
L 697 0 
L 697 3053 
L 147 3053 
L 147 3500 
L 697 3500 
L 697 3744 
Q 697 4316 967 4589 
Q 1238 4863 1797 4863 
L 2375 4863 
L 2375 4384 
L 1825 4384 
Q 1516 4384 1395 4259 
Q 1275 4134 1275 3809 
L 1275 3500 
L 3431 3500 
z
M 2853 4856 
L 3431 4856 
L 3431 4128 
L 2853 4128 
L 2853 4856 
z
" transform="scale(0.015625)"/>
     </defs>
     <use xlink:href="#DejaVuSans-46"/>
     <use xlink:href="#DejaVuSans-52" transform="translate(54.984375 0)"/>
     <use xlink:href="#DejaVuSans-51" transform="translate(116.171875 0)"/>
     <use xlink:href="#DejaVuSans-46" transform="translate(179.546875 0)"/>
     <use xlink:href="#DejaVuSans-48" transform="translate(234.53125 0)"/>
     <use xlink:href="#DejaVuSans-53" transform="translate(296.0625 0)"/>
     <use xlink:href="#DejaVuSans-57" transform="translate(359.546875 0)"/>
     <use xlink:href="#DejaVuSans-3" transform="translate(398.75 0)"/>
     <use xlink:href="#DejaVuSans-13af" transform="translate(430.53125 0)"/>
     <use xlink:href="#DejaVuSans-47" transform="translate(493.515625 0)"/>
     <use xlink:href="#DejaVuSans-48" transform="translate(557 0)"/>
     <use xlink:href="#DejaVuSans-4f" transform="translate(618.53125 0)"/>
     <use xlink:href="#DejaVuSans-4c" transform="translate(646.3125 0)"/>
     <use xlink:href="#DejaVuSans-57" transform="translate(674.09375 0)"/>
     <use xlink:href="#DejaVuSans-5c" transform="translate(713.296875 0)"/>
    </g>
   </g>
   <g id="patch_9">
    <path d="M 397.962396 139.81248 
Q 403.983685 139.81248 408.216119 139.81248 
" style="fill: none; stroke: #000000; stroke-width: 1.6; stroke-linecap: round"/>
    <path d="M 404.216119 137.81248 
L 408.216119 139.81248 
L 404.216119 141.81248 
" style="fill: none; stroke: #000000; stroke-width: 1.6; stroke-linecap: round"/>
   </g>
   <g id="text_7">
    <!-- WHY -->
    <g transform="translate(451.896516 116.74944) scale(0.11 -0.11)">
     <defs>
      <path id="DejaVuSans-Bold-3c" d="M -63 4666 
L 1253 4666 
L 2316 3003 
L 3378 4666 
L 4697 4666 
L 2919 1966 
L 2919 0 
L 1716 0 
L 1716 1966 
L -63 4666 
z
" transform="scale(0.015625)"/>
     </defs>
     <use xlink:href="#DejaVuSans-Bold-3a"/>
     <use xlink:href="#DejaVuSans-Bold-2b" transform="translate(110.296875 0)"/>
     <use xlink:href="#DejaVuSans-Bold-3c" transform="translate(193.984375 0)"/>
    </g>
   </g>
   <g id="text_8">
    <!-- Signed centered terms -->
    <g transform="translate(420.91425 165.918624) scale(0.08 -0.08)">
     <defs>
      <path id="DejaVuSans-36" d="M 3425 4513 
L 3425 3897 
Q 3066 4069 2747 4153 
Q 2428 4238 2131 4238 
Q 1616 4238 1336 4038 
Q 1056 3838 1056 3469 
Q 1056 3159 1242 3001 
Q 1428 2844 1947 2747 
L 2328 2669 
Q 3034 2534 3370 2195 
Q 3706 1856 3706 1288 
Q 3706 609 3251 259 
Q 2797 -91 1919 -91 
Q 1588 -91 1214 -16 
Q 841 59 441 206 
L 441 856 
Q 825 641 1194 531 
Q 1563 422 1919 422 
Q 2459 422 2753 634 
Q 3047 847 3047 1241 
Q 3047 1584 2836 1778 
Q 2625 1972 2144 2069 
L 1759 2144 
Q 1053 2284 737 2584 
Q 422 2884 422 3419 
Q 422 4038 858 4394 
Q 1294 4750 2059 4750 
Q 2388 4750 2728 4690 
Q 3069 4631 3425 4513 
z
" transform="scale(0.015625)"/>
     </defs>
     <use xlink:href="#DejaVuSans-36"/>
     <use xlink:href="#DejaVuSans-4c" transform="translate(63.484375 0)"/>
     <use xlink:href="#DejaVuSans-4a" transform="translate(91.265625 0)"/>
     <use xlink:href="#DejaVuSans-51" transform="translate(154.75 0)"/>
     <use xlink:href="#DejaVuSans-48" transform="translate(218.125 0)"/>
     <use xlink:href="#DejaVuSans-47" transform="translate(279.65625 0)"/>
     <use xlink:href="#DejaVuSans-3" transform="translate(343.140625 0)"/>
     <use xlink:href="#DejaVuSans-46" transform="translate(374.921875 0)"/>
     <use xlink:href="#DejaVuSans-48" transform="translate(429.90625 0)"/>
     <use xlink:href="#DejaVuSans-51" transform="translate(491.4375 0)"/>
     <use xlink:href="#DejaVuSans-57" transform="translate(554.8125 0)"/>
     <use xlink:href="#DejaVuSans-48" transform="translate(594.015625 0)"/>
     <use xlink:href="#DejaVuSans-55" transform="translate(655.546875 0)"/>
     <use xlink:href="#DejaVuSans-48" transform="translate(694.453125 0)"/>
     <use xlink:href="#DejaVuSans-47" transform="translate(755.984375 0)"/>
     <use xlink:href="#DejaVuSans-3" transform="translate(819.46875 0)"/>
     <use xlink:href="#DejaVuSans-57" transform="translate(851.25 0)"/>
     <use xlink:href="#DejaVuSans-48" transform="translate(890.453125 0)"/>
     <use xlink:href="#DejaVuSans-55" transform="translate(951.984375 0)"/>
     <use xlink:href="#DejaVuSans-50" transform="translate(991.34375 0)"/>
     <use xlink:href="#DejaVuSans-56" transform="translate(1088.75 0)"/>
    </g>
    <!-- Learned local-expert mixtures -->
    <g transform="translate(406.50925 175.520811) scale(0.08 -0.08)">
     <defs>
      <path id="DejaVuSans-5b" d="M 3513 3500 
L 2247 1797 
L 3578 0 
L 2900 0 
L 1881 1375 
L 863 0 
L 184 0 
L 1544 1831 
L 300 3500 
L 978 3500 
L 1906 2253 
L 2834 3500 
L 3513 3500 
z
" transform="scale(0.015625)"/>
     </defs>
     <use xlink:href="#DejaVuSans-2f"/>
     <use xlink:href="#DejaVuSans-48" transform="translate(53.96875 0)"/>
     <use xlink:href="#DejaVuSans-44" transform="translate(115.5 0)"/>
     <use xlink:href="#DejaVuSans-55" transform="translate(176.78125 0)"/>
     <use xlink:href="#DejaVuSans-51" transform="translate(216.140625 0)"/>
     <use xlink:href="#DejaVuSans-48" transform="translate(279.515625 0)"/>
     <use xlink:href="#DejaVuSans-47" transform="translate(341.046875 0)"/>
     <use xlink:href="#DejaVuSans-3" transform="translate(404.53125 0)"/>
     <use xlink:href="#DejaVuSans-4f" transform="translate(436.3125 0)"/>
     <use xlink:href="#DejaVuSans-52" transform="translate(464.09375 0)"/>
     <use xlink:href="#DejaVuSans-46" transform="translate(525.28125 0)"/>
     <use xlink:href="#DejaVuSans-44" transform="translate(580.265625 0)"/>
     <use xlink:href="#DejaVuSans-4f" transform="translate(641.546875 0)"/>
     <use xlink:href="#DejaVuSans-10" transform="translate(669.328125 0)"/>
     <use xlink:href="#DejaVuSans-48" transform="translate(705.40625 0)"/>
     <use xlink:href="#DejaVuSans-5b" transform="translate(765.1875 0)"/>
     <use xlink:href="#DejaVuSans-53" transform="translate(824.375 0)"/>
     <use xlink:href="#DejaVuSans-48" transform="translate(887.859375 0)"/>
     <use xlink:href="#DejaVuSans-55" transform="translate(949.390625 0)"/>
     <use xlink:href="#DejaVuSans-57" transform="translate(990.5 0)"/>
     <use xlink:href="#DejaVuSans-3" transform="translate(1029.703125 0)"/>
     <use xlink:href="#DejaVuSans-50" transform="translate(1061.484375 0)"/>
     <use xlink:href="#DejaVuSans-4c" transform="translate(1158.890625 0)"/>
     <use xlink:href="#DejaVuSans-5b" transform="translate(1186.671875 0)"/>
     <use xlink:href="#DejaVuSans-57" transform="translate(1245.859375 0)"/>
     <use xlink:href="#DejaVuSans-58" transform="translate(1285.0625 0)"/>
     <use xlink:href="#DejaVuSans-55" transform="translate(1348.4375 0)"/>
     <use xlink:href="#DejaVuSans-48" transform="translate(1387.34375 0)"/>
     <use xlink:href="#DejaVuSans-56" transform="translate(1448.875 0)"/>
    </g>
   </g>
   <g id="patch_10">
    <path d="M 523.093896 139.81248 
Q 529.115185 139.81248 533.347619 139.81248 
" style="fill: none; stroke: #000000; stroke-width: 1.6; stroke-linecap: round"/>
    <path d="M 529.347619 137.81248 
L 533.347619 139.81248 
L 529.347619 141.81248 
" style="fill: none; stroke: #000000; stroke-width: 1.6; stroke-linecap: round"/>
   </g>
   <g id="text_9">
    <!-- HOW -->
    <g transform="translate(576.3345 116.74944) scale(0.11 -0.11)">
     <defs>
      <path id="DejaVuSans-Bold-32" d="M 2719 3878 
Q 2169 3878 1866 3472 
Q 1563 3066 1563 2328 
Q 1563 1594 1866 1187 
Q 2169 781 2719 781 
Q 3272 781 3575 1187 
Q 3878 1594 3878 2328 
Q 3878 3066 3575 3472 
Q 3272 3878 2719 3878 
z
M 2719 4750 
Q 3844 4750 4481 4106 
Q 5119 3463 5119 2328 
Q 5119 1197 4481 553 
Q 3844 -91 2719 -91 
Q 1597 -91 958 553 
Q 319 1197 319 2328 
Q 319 3463 958 4106 
Q 1597 4750 2719 4750 
z
" transform="scale(0.015625)"/>
     </defs>
     <use xlink:href="#DejaVuSans-Bold-2b"/>
     <use xlink:href="#DejaVuSans-Bold-32" transform="translate(83.6875 0)"/>
     <use xlink:href="#DejaVuSans-Bold-3a" transform="translate(168.703125 0)"/>
    </g>
   </g>
   <g id="text_10">
    <!-- k=0…8 interventions -->
    <g transform="translate(549.22075 165.918624) scale(0.08 -0.08)">
     <defs>
      <path id="DejaVuSans-4e" d="M 581 4863 
L 1159 4863 
L 1159 1991 
L 2875 3500 
L 3609 3500 
L 1753 1863 
L 3688 0 
L 2938 0 
L 1159 1709 
L 1159 0 
L 581 0 
L 581 4863 
z
" transform="scale(0.015625)"/>
      <path id="DejaVuSans-20" d="M 678 2906 
L 4684 2906 
L 4684 2381 
L 678 2381 
L 678 2906 
z
M 678 1631 
L 4684 1631 
L 4684 1100 
L 678 1100 
L 678 1631 
z
" transform="scale(0.015625)"/>
      <path id="DejaVuSans-13" d="M 2034 4250 
Q 1547 4250 1301 3770 
Q 1056 3291 1056 2328 
Q 1056 1369 1301 889 
Q 1547 409 2034 409 
Q 2525 409 2770 889 
Q 3016 1369 3016 2328 
Q 3016 3291 2770 3770 
Q 2525 4250 2034 4250 
z
M 2034 4750 
Q 2819 4750 3233 4129 
Q 3647 3509 3647 2328 
Q 3647 1150 3233 529 
Q 2819 -91 2034 -91 
Q 1250 -91 836 529 
Q 422 1150 422 2328 
Q 422 3509 836 4129 
Q 1250 4750 2034 4750 
z
" transform="scale(0.015625)"/>
      <path id="DejaVuSans-b08" d="M 2869 794 
L 3531 794 
L 3531 0 
L 2869 0 
L 2869 794 
z
M 4997 794 
L 5663 794 
L 5663 0 
L 4997 0 
L 4997 794 
z
M 738 794 
L 1403 794 
L 1403 0 
L 738 0 
L 738 794 
z
" transform="scale(0.015625)"/>
      <path id="DejaVuSans-1b" d="M 2034 2216 
Q 1584 2216 1326 1975 
Q 1069 1734 1069 1313 
Q 1069 891 1326 650 
Q 1584 409 2034 409 
Q 2484 409 2743 651 
Q 3003 894 3003 1313 
Q 3003 1734 2745 1975 
Q 2488 2216 2034 2216 
z
M 1403 2484 
Q 997 2584 770 2862 
Q 544 3141 544 3541 
Q 544 4100 942 4425 
Q 1341 4750 2034 4750 
Q 2731 4750 3128 4425 
Q 3525 4100 3525 3541 
Q 3525 3141 3298 2862 
Q 3072 2584 2669 2484 
Q 3125 2378 3379 2068 
Q 3634 1759 3634 1313 
Q 3634 634 3220 271 
Q 2806 -91 2034 -91 
Q 1263 -91 848 271 
Q 434 634 434 1313 
Q 434 1759 690 2068 
Q 947 2378 1403 2484 
z
M 1172 3481 
Q 1172 3119 1398 2916 
Q 1625 2713 2034 2713 
Q 2441 2713 2670 2916 
Q 2900 3119 2900 3481 
Q 2900 3844 2670 4047 
Q 2441 4250 2034 4250 
Q 1625 4250 1398 4047 
Q 1172 3844 1172 3481 
z
" transform="scale(0.015625)"/>
      <path id="DejaVuSans-59" d="M 191 3500 
L 800 3500 
L 1894 563 
L 2988 3500 
L 3597 3500 
L 2284 0 
L 1503 0 
L 191 3500 
z
" transform="scale(0.015625)"/>
     </defs>
     <use xlink:href="#DejaVuSans-4e"/>
     <use xlink:href="#DejaVuSans-20" transform="translate(57.90625 0)"/>
     <use xlink:href="#DejaVuSans-13" transform="translate(141.703125 0)"/>
     <use xlink:href="#DejaVuSans-b08" transform="translate(205.328125 0)"/>
     <use xlink:href="#DejaVuSans-1b" transform="translate(305.328125 0)"/>
     <use xlink:href="#DejaVuSans-3" transform="translate(368.953125 0)"/>
     <use xlink:href="#DejaVuSans-4c" transform="translate(400.734375 0)"/>
     <use xlink:href="#DejaVuSans-51" transform="translate(428.515625 0)"/>
     <use xlink:href="#DejaVuSans-57" transform="translate(491.890625 0)"/>
     <use xlink:href="#DejaVuSans-48" transform="translate(531.09375 0)"/>
     <use xlink:href="#DejaVuSans-55" transform="translate(592.625 0)"/>
     <use xlink:href="#DejaVuSans-59" transform="translate(633.734375 0)"/>
     <use xlink:href="#DejaVuSans-48" transform="translate(692.921875 0)"/>
     <use xlink:href="#DejaVuSans-51" transform="translate(754.453125 0)"/>
     <use xlink:href="#DejaVuSans-57" transform="translate(817.828125 0)"/>
     <use xlink:href="#DejaVuSans-4c" transform="translate(857.03125 0)"/>
     <use xlink:href="#DejaVuSans-52" transform="translate(884.8125 0)"/>
     <use xlink:href="#DejaVuSans-51" transform="translate(946 0)"/>
     <use xlink:href="#DejaVuSans-56" transform="translate(1009.375 0)"/>
    </g>
    <!-- Ordering-dependent response -->
    <g transform="translate(531.60325 175.520811) scale(0.08 -0.08)">
     <defs>
      <path id="DejaVuSans-32" d="M 2522 4238 
Q 1834 4238 1429 3725 
Q 1025 3213 1025 2328 
Q 1025 1447 1429 934 
Q 1834 422 2522 422 
Q 3209 422 3611 934 
Q 4013 1447 4013 2328 
Q 4013 3213 3611 3725 
Q 3209 4238 2522 4238 
z
M 2522 4750 
Q 3503 4750 4090 4092 
Q 4678 3434 4678 2328 
Q 4678 1225 4090 567 
Q 3503 -91 2522 -91 
Q 1538 -91 948 565 
Q 359 1222 359 2328 
Q 359 3434 948 4092 
Q 1538 4750 2522 4750 
z
" transform="scale(0.015625)"/>
     </defs>
     <use xlink:href="#DejaVuSans-32"/>
     <use xlink:href="#DejaVuSans-55" transform="translate(78.71875 0)"/>
     <use xlink:href="#DejaVuSans-47" transform="translate(118.078125 0)"/>
     <use xlink:href="#DejaVuSans-48" transform="translate(181.5625 0)"/>
     <use xlink:href="#DejaVuSans-55" transform="translate(243.09375 0)"/>
     <use xlink:href="#DejaVuSans-4c" transform="translate(284.203125 0)"/>
     <use xlink:href="#DejaVuSans-51" transform="translate(311.984375 0)"/>
     <use xlink:href="#DejaVuSans-4a" transform="translate(375.359375 0)"/>
     <use xlink:href="#DejaVuSans-10" transform="translate(438.84375 0)"/>
     <use xlink:href="#DejaVuSans-47" transform="translate(474.921875 0)"/>
     <use xlink:href="#DejaVuSans-48" transform="translate(538.40625 0)"/>
     <use xlink:href="#DejaVuSans-53" transform="translate(599.9375 0)"/>
     <use xlink:href="#DejaVuSans-48" transform="translate(663.421875 0)"/>
     <use xlink:href="#DejaVuSans-51" transform="translate(724.953125 0)"/>
     <use xlink:href="#DejaVuSans-47" transform="translate(788.328125 0)"/>
     <use xlink:href="#DejaVuSans-48" transform="translate(851.8125 0)"/>
     <use xlink:href="#DejaVuSans-51" transform="translate(913.34375 0)"/>
     <use xlink:href="#DejaVuSans-57" transform="translate(976.71875 0)"/>
     <use xlink:href="#DejaVuSans-3" transform="translate(1015.921875 0)"/>
     <use xlink:href="#DejaVuSans-55" transform="translate(1047.703125 0)"/>
     <use xlink:href="#DejaVuSans-48" transform="translate(1086.609375 0)"/>
     <use xlink:href="#DejaVuSans-56" transform="translate(1148.140625 0)"/>
     <use xlink:href="#DejaVuSans-53" transform="translate(1200.234375 0)"/>
     <use xlink:href="#DejaVuSans-52" transform="translate(1263.71875 0)"/>
     <use xlink:href="#DejaVuSans-51" transform="translate(1324.90625 0)"/>
     <use xlink:href="#DejaVuSans-56" transform="translate(1388.28125 0)"/>
     <use xlink:href="#DejaVuSans-48" transform="translate(1440.375 0)"/>
    </g>
   </g>
   <g id="text_11">
    <!-- Integrated conclusion: interpretability evidence is complementary, model-dependent, and bounded -->
    <g transform="translate(7.2 243.59616) scale(0.12 -0.12)">
     <defs>
      <path id="DejaVuSans-Bold-2c" d="M 588 4666 
L 1791 4666 
L 1791 0 
L 588 0 
L 588 4666 
z
" transform="scale(0.015625)"/>
      <path id="DejaVuSans-Bold-4a" d="M 2919 594 
Q 2688 288 2409 144 
Q 2131 0 1766 0 
Q 1125 0 706 504 
Q 288 1009 288 1791 
Q 288 2575 706 3076 
Q 1125 3578 1766 3578 
Q 2131 3578 2409 3434 
Q 2688 3291 2919 2981 
L 2919 3500 
L 4044 3500 
L 4044 353 
Q 4044 -491 3511 -936 
Q 2978 -1381 1966 -1381 
Q 1638 -1381 1331 -1331 
Q 1025 -1281 716 -1178 
L 716 -306 
Q 1009 -475 1290 -558 
Q 1572 -641 1856 -641 
Q 2406 -641 2662 -400 
Q 2919 -159 2919 353 
L 2919 594 
z
M 2181 2772 
Q 1834 2772 1640 2515 
Q 1447 2259 1447 1791 
Q 1447 1309 1634 1061 
Q 1822 813 2181 813 
Q 2531 813 2725 1069 
Q 2919 1325 2919 1791 
Q 2919 2259 2725 2515 
Q 2531 2772 2181 2772 
z
" transform="scale(0.015625)"/>
      <path id="DejaVuSans-Bold-44" d="M 2106 1575 
Q 1756 1575 1579 1456 
Q 1403 1338 1403 1106 
Q 1403 894 1545 773 
Q 1688 653 1941 653 
Q 2256 653 2472 879 
Q 2688 1106 2688 1447 
L 2688 1575 
L 2106 1575 
z
M 3816 1997 
L 3816 0 
L 2688 0 
L 2688 519 
Q 2463 200 2181 54 
Q 1900 -91 1497 -91 
Q 953 -91 614 226 
Q 275 544 275 1050 
Q 275 1666 698 1953 
Q 1122 2241 2028 2241 
L 2688 2241 
L 2688 2328 
Q 2688 2594 2478 2717 
Q 2269 2841 1825 2841 
Q 1466 2841 1156 2769 
Q 847 2697 581 2553 
L 581 3406 
Q 941 3494 1303 3539 
Q 1666 3584 2028 3584 
Q 2975 3584 3395 3211 
Q 3816 2838 3816 1997 
z
" transform="scale(0.015625)"/>
      <path id="DejaVuSans-Bold-3" transform="scale(0.015625)"/>
      <path id="DejaVuSans-Bold-4f" d="M 538 4863 
L 1656 4863 
L 1656 0 
L 538 0 
L 538 4863 
z
" transform="scale(0.015625)"/>
      <path id="DejaVuSans-Bold-58" d="M 500 1363 
L 500 3500 
L 1625 3500 
L 1625 3150 
Q 1625 2866 1622 2436 
Q 1619 2006 1619 1863 
Q 1619 1441 1641 1255 
Q 1663 1069 1716 984 
Q 1784 875 1895 815 
Q 2006 756 2150 756 
Q 2500 756 2700 1025 
Q 2900 1294 2900 1772 
L 2900 3500 
L 4019 3500 
L 4019 0 
L 2900 0 
L 2900 506 
Q 2647 200 2364 54 
Q 2081 -91 1741 -91 
Q 1134 -91 817 281 
Q 500 653 500 1363 
z
" transform="scale(0.015625)"/>
      <path id="DejaVuSans-Bold-56" d="M 3272 3391 
L 3272 2541 
Q 2913 2691 2578 2766 
Q 2244 2841 1947 2841 
Q 1628 2841 1473 2761 
Q 1319 2681 1319 2516 
Q 1319 2381 1436 2309 
Q 1553 2238 1856 2203 
L 2053 2175 
Q 2913 2066 3209 1816 
Q 3506 1566 3506 1031 
Q 3506 472 3093 190 
Q 2681 -91 1863 -91 
Q 1516 -91 1145 -36 
Q 775 19 384 128 
L 384 978 
Q 719 816 1070 734 
Q 1422 653 1784 653 
Q 2113 653 2278 743 
Q 2444 834 2444 1013 
Q 2444 1163 2330 1236 
Q 2216 1309 1875 1350 
L 1678 1375 
Q 931 1469 631 1722 
Q 331 1975 331 2491 
Q 331 3047 712 3315 
Q 1094 3584 1881 3584 
Q 2191 3584 2531 3537 
Q 2872 3491 3272 3391 
z
" transform="scale(0.015625)"/>
      <path id="DejaVuSans-Bold-1d" d="M 716 3500 
L 1844 3500 
L 1844 2291 
L 716 2291 
L 716 3500 
z
M 716 1209 
L 1844 1209 
L 1844 0 
L 716 0 
L 716 1209 
z
" transform="scale(0.015625)"/>
      <path id="DejaVuSans-Bold-53" d="M 1656 506 
L 1656 -1331 
L 538 -1331 
L 538 3500 
L 1656 3500 
L 1656 2988 
Q 1888 3294 2169 3439 
Q 2450 3584 2816 3584 
Q 3463 3584 3878 3070 
Q 4294 2556 4294 1747 
Q 4294 938 3878 423 
Q 3463 -91 2816 -91 
Q 2450 -91 2169 54 
Q 1888 200 1656 506 
z
M 2400 2772 
Q 2041 2772 1848 2508 
Q 1656 2244 1656 1747 
Q 1656 1250 1848 986 
Q 2041 722 2400 722 
Q 2759 722 2948 984 
Q 3138 1247 3138 1747 
Q 3138 2247 2948 2509 
Q 2759 2772 2400 2772 
z
" transform="scale(0.015625)"/>
      <path id="DejaVuSans-Bold-45" d="M 2400 722 
Q 2759 722 2948 984 
Q 3138 1247 3138 1747 
Q 3138 2247 2948 2509 
Q 2759 2772 2400 2772 
Q 2041 2772 1848 2508 
Q 1656 2244 1656 1747 
Q 1656 1250 1848 986 
Q 2041 722 2400 722 
z
M 1656 2988 
Q 1888 3294 2169 3439 
Q 2450 3584 2816 3584 
Q 3463 3584 3878 3070 
Q 4294 2556 4294 1747 
Q 4294 938 3878 423 
Q 3463 -91 2816 -91 
Q 2450 -91 2169 54 
Q 1888 200 1656 506 
L 1656 0 
L 538 0 
L 538 4863 
L 1656 4863 
L 1656 2988 
z
" transform="scale(0.015625)"/>
      <path id="DejaVuSans-Bold-5c" d="M 78 3500 
L 1197 3500 
L 2138 1125 
L 2938 3500 
L 4056 3500 
L 2584 -331 
Q 2363 -916 2067 -1148 
Q 1772 -1381 1288 -1381 
L 641 -1381 
L 641 -647 
L 991 -647 
Q 1275 -647 1404 -556 
Q 1534 -466 1606 -231 
L 1638 -134 
L 78 3500 
z
" transform="scale(0.015625)"/>
      <path id="DejaVuSans-Bold-59" d="M 97 3500 
L 1216 3500 
L 2088 1081 
L 2956 3500 
L 4078 3500 
L 2700 0 
L 1472 0 
L 97 3500 
z
" transform="scale(0.015625)"/>
      <path id="DejaVuSans-Bold-50" d="M 3781 2919 
Q 3994 3244 4286 3414 
Q 4578 3584 4928 3584 
Q 5531 3584 5847 3212 
Q 6163 2841 6163 2131 
L 6163 0 
L 5038 0 
L 5038 1825 
Q 5041 1866 5042 1909 
Q 5044 1953 5044 2034 
Q 5044 2406 4934 2573 
Q 4825 2741 4581 2741 
Q 4263 2741 4089 2478 
Q 3916 2216 3909 1719 
L 3909 0 
L 2784 0 
L 2784 1825 
Q 2784 2406 2684 2573 
Q 2584 2741 2328 2741 
Q 2006 2741 1831 2477 
Q 1656 2213 1656 1722 
L 1656 0 
L 531 0 
L 531 3500 
L 1656 3500 
L 1656 2988 
Q 1863 3284 2130 3434 
Q 2397 3584 2719 3584 
Q 3081 3584 3359 3409 
Q 3638 3234 3781 2919 
z
" transform="scale(0.015625)"/>
      <path id="DejaVuSans-Bold-f" d="M 653 1209 
L 1778 1209 
L 1778 256 
L 1006 -909 
L 341 -909 
L 653 256 
L 653 1209 
z
" transform="scale(0.015625)"/>
      <path id="DejaVuSans-Bold-10" d="M 347 2297 
L 2309 2297 
L 2309 1388 
L 347 1388 
L 347 2297 
z
" transform="scale(0.015625)"/>
     </defs>
     <use xlink:href="#DejaVuSans-Bold-2c"/>
     <use xlink:href="#DejaVuSans-Bold-51" transform="translate(37.203125 0)"/>
     <use xlink:href="#DejaVuSans-Bold-57" transform="translate(108.390625 0)"/>
     <use xlink:href="#DejaVuSans-Bold-48" transform="translate(156.1875 0)"/>
     <use xlink:href="#DejaVuSans-Bold-4a" transform="translate(224.015625 0)"/>
     <use xlink:href="#DejaVuSans-Bold-55" transform="translate(295.59375 0)"/>
     <use xlink:href="#DejaVuSans-Bold-44" transform="translate(344.90625 0)"/>
     <use xlink:href="#DejaVuSans-Bold-57" transform="translate(412.390625 0)"/>
     <use xlink:href="#DejaVuSans-Bold-48" transform="translate(460.1875 0)"/>
     <use xlink:href="#DejaVuSans-Bold-47" transform="translate(528.015625 0)"/>
     <use xlink:href="#DejaVuSans-Bold-3" transform="translate(599.59375 0)"/>
     <use xlink:href="#DejaVuSans-Bold-46" transform="translate(634.40625 0)"/>
     <use xlink:href="#DejaVuSans-Bold-52" transform="translate(693.6875 0)"/>
     <use xlink:href="#DejaVuSans-Bold-51" transform="translate(762.390625 0)"/>
     <use xlink:href="#DejaVuSans-Bold-46" transform="translate(833.578125 0)"/>
     <use xlink:href="#DejaVuSans-Bold-4f" transform="translate(892.859375 0)"/>
     <use xlink:href="#DejaVuSans-Bold-58" transform="translate(927.140625 0)"/>
     <use xlink:href="#DejaVuSans-Bold-56" transform="translate(998.328125 0)"/>
     <use xlink:href="#DejaVuSans-Bold-4c" transform="translate(1057.84375 0)"/>
     <use xlink:href="#DejaVuSans-Bold-52" transform="translate(1092.125 0)"/>
     <use xlink:href="#DejaVuSans-Bold-51" transform="translate(1160.828125 0)"/>
     <use xlink:href="#DejaVuSans-Bold-1d" transform="translate(1232.015625 0)"/>
     <use xlink:href="#DejaVuSans-Bold-3" transform="translate(1272 0)"/>
     <use xlink:href="#DejaVuSans-Bold-4c" transform="translate(1306.8125 0)"/>
     <use xlink:href="#DejaVuSans-Bold-51" transform="translate(1341.09375 0)"/>
     <use xlink:href="#DejaVuSans-Bold-57" transform="translate(1412.28125 0)"/>
     <use xlink:href="#DejaVuSans-Bold-48" transform="translate(1460.078125 0)"/>
     <use xlink:href="#DejaVuSans-Bold-55" transform="translate(1527.90625 0)"/>
     <use xlink:href="#DejaVuSans-Bold-53" transform="translate(1577.21875 0)"/>
     <use xlink:href="#DejaVuSans-Bold-55" transform="translate(1648.796875 0)"/>
     <use xlink:href="#DejaVuSans-Bold-48" transform="translate(1698.109375 0)"/>
     <use xlink:href="#DejaVuSans-Bold-57" transform="translate(1765.9375 0)"/>
     <use xlink:href="#DejaVuSans-Bold-44" transform="translate(1813.734375 0)"/>
     <use xlink:href="#DejaVuSans-Bold-45" transform="translate(1881.21875 0)"/>
     <use xlink:href="#DejaVuSans-Bold-4c" transform="translate(1952.796875 0)"/>
     <use xlink:href="#DejaVuSans-Bold-4f" transform="translate(1987.078125 0)"/>
     <use xlink:href="#DejaVuSans-Bold-4c" transform="translate(2021.359375 0)"/>
     <use xlink:href="#DejaVuSans-Bold-57" transform="translate(2055.640625 0)"/>
     <use xlink:href="#DejaVuSans-Bold-5c" transform="translate(2103.4375 0)"/>
     <use xlink:href="#DejaVuSans-Bold-3" transform="translate(2168.625 0)"/>
     <use xlink:href="#DejaVuSans-Bold-48" transform="translate(2203.4375 0)"/>
     <use xlink:href="#DejaVuSans-Bold-59" transform="translate(2271.265625 0)"/>
     <use xlink:href="#DejaVuSans-Bold-4c" transform="translate(2336.453125 0)"/>
     <use xlink:href="#DejaVuSans-Bold-47" transform="translate(2370.734375 0)"/>
     <use xlink:href="#DejaVuSans-Bold-48" transform="translate(2442.3125 0)"/>
     <use xlink:href="#DejaVuSans-Bold-51" transform="translate(2510.140625 0)"/>
     <use xlink:href="#DejaVuSans-Bold-46" transform="translate(2581.328125 0)"/>
     <use xlink:href="#DejaVuSans-Bold-48" transform="translate(2640.609375 0)"/>
     <use xlink:href="#DejaVuSans-Bold-3" transform="translate(2708.4375 0)"/>
     <use xlink:href="#DejaVuSans-Bold-4c" transform="translate(2743.25 0)"/>
     <use xlink:href="#DejaVuSans-Bold-56" transform="translate(2777.53125 0)"/>
     <use xlink:href="#DejaVuSans-Bold-3" transform="translate(2837.046875 0)"/>
     <use xlink:href="#DejaVuSans-Bold-46" transform="translate(2871.859375 0)"/>
     <use xlink:href="#DejaVuSans-Bold-52" transform="translate(2931.140625 0)"/>
     <use xlink:href="#DejaVuSans-Bold-50" transform="translate(2999.84375 0)"/>
     <use xlink:href="#DejaVuSans-Bold-53" transform="translate(3104.046875 0)"/>
     <use xlink:href="#DejaVuSans-Bold-4f" transform="translate(3175.625 0)"/>
     <use xlink:href="#DejaVuSans-Bold-48" transform="translate(3209.90625 0)"/>
     <use xlink:href="#DejaVuSans-Bold-50" transform="translate(3277.734375 0)"/>
     <use xlink:href="#DejaVuSans-Bold-48" transform="translate(3381.9375 0)"/>
     <use xlink:href="#DejaVuSans-Bold-51" transform="translate(3449.765625 0)"/>
     <use xlink:href="#DejaVuSans-Bold-57" transform="translate(3520.953125 0)"/>
     <use xlink:href="#DejaVuSans-Bold-44" transform="translate(3568.75 0)"/>
     <use xlink:href="#DejaVuSans-Bold-55" transform="translate(3636.234375 0)"/>
     <use xlink:href="#DejaVuSans-Bold-5c" transform="translate(3685.546875 0)"/>
     <use xlink:href="#DejaVuSans-Bold-f" transform="translate(3742.96875 0)"/>
     <use xlink:href="#DejaVuSans-Bold-3" transform="translate(3780.953125 0)"/>
     <use xlink:href="#DejaVuSans-Bold-50" transform="translate(3815.765625 0)"/>
     <use xlink:href="#DejaVuSans-Bold-52" transform="translate(3919.96875 0)"/>
     <use xlink:href="#DejaVuSans-Bold-47" transform="translate(3988.671875 0)"/>
     <use xlink:href="#DejaVuSans-Bold-48" transform="translate(4060.25 0)"/>
     <use xlink:href="#DejaVuSans-Bold-4f" transform="translate(4128.078125 0)"/>
     <use xlink:href="#DejaVuSans-Bold-10" transform="translate(4162.359375 0)"/>
     <use xlink:href="#DejaVuSans-Bold-47" transform="translate(4203.859375 0)"/>
     <use xlink:href="#DejaVuSans-Bold-48" transform="translate(4275.4375 0)"/>
     <use xlink:href="#DejaVuSans-Bold-53" transform="translate(4343.265625 0)"/>
     <use xlink:href="#DejaVuSans-Bold-48" transform="translate(4414.84375 0)"/>
     <use xlink:href="#DejaVuSans-Bold-51" transform="translate(4482.671875 0)"/>
     <use xlink:href="#DejaVuSans-Bold-47" transform="translate(4553.859375 0)"/>
     <use xlink:href="#DejaVuSans-Bold-48" transform="translate(4625.4375 0)"/>
     <use xlink:href="#DejaVuSans-Bold-51" transform="translate(4693.265625 0)"/>
     <use xlink:href="#DejaVuSans-Bold-57" transform="translate(4764.453125 0)"/>
     <use xlink:href="#DejaVuSans-Bold-f" transform="translate(4812.25 0)"/>
     <use xlink:href="#DejaVuSans-Bold-3" transform="translate(4850.234375 0)"/>
     <use xlink:href="#DejaVuSans-Bold-44" transform="translate(4885.046875 0)"/>
     <use xlink:href="#DejaVuSans-Bold-51" transform="translate(4952.53125 0)"/>
     <use xlink:href="#DejaVuSans-Bold-47" transform="translate(5023.71875 0)"/>
     <use xlink:href="#DejaVuSans-Bold-3" transform="translate(5095.296875 0)"/>
     <use xlink:href="#DejaVuSans-Bold-45" transform="translate(5130.109375 0)"/>
     <use xlink:href="#DejaVuSans-Bold-52" transform="translate(5201.6875 0)"/>
     <use xlink:href="#DejaVuSans-Bold-58" transform="translate(5270.390625 0)"/>
     <use xlink:href="#DejaVuSans-Bold-51" transform="translate(5341.578125 0)"/>
     <use xlink:href="#DejaVuSans-Bold-47" transform="translate(5412.765625 0)"/>
     <use xlink:href="#DejaVuSans-Bold-48" transform="translate(5484.34375 0)"/>
     <use xlink:href="#DejaVuSans-Bold-47" transform="translate(5552.171875 0)"/>
    </g>
   </g>
  </g>
 </g>
 <defs>
  <clipPath id="p87f85ea536">
   <rect x="23.775" y="7.2" width="641.7" height="288.288"/>
  </clipPath>
 </defs>
</svg>
